<?xml version="1.0" encoding="UTF-8"?>
<svg id="Capa_1" data-name="Capa 1" xmlns="http://www.w3.org/2000/svg" viewBox="0 0 595.28 841.89">
  <defs>
    <style>
      .cls-1 {
        fill: #F4F1BB;
      }
    </style>
  </defs>
  <g id="_4nQ1OU" data-name="4nQ1OU">
    <g>
      <path class="cls-1" d="M467.75,411.75c9.31,5.76,16.75,13.93,13.69,27.6,9.21,6.63,11.15,15.61,8.69,27.66-.25,1.24-1.63,2.51-2.82,3.24-17.68,11.02-35.08,22.54-53.21,32.78-30.73,17.35-63.52,30.25-96.89,41.44-23.74,7.97-47.85,15.02-72.1,21.25-22.57,5.79-45.89,6.81-69.05,5.15-12.85-.92-25.57-4.27-38.24-7.04-7.03-1.54-9.87-7.64-7.13-15.3,1.85-5.18,5.08-9.85,7.45-14.86,.72-1.53,1.41-3.79,.81-5.11-4.99-10.95-4.49-22.13-2.19-33.51,.38-1.88,.81-4.36-.05-5.79-10.36-17.28-15.94-36.27-20.46-55.67-.17-.74-.47-1.45-1.04-3.14-3.8,10-7.5,18.96-10.6,28.13-2.22,6.57-5.21,12.87-12.25,14.23-8.94,1.74-18.25,2.08-25.83-4.91-2.55-2.35-5.13-4.68-7.75-7.06,7.72-12.11,15.04-23.63,22.41-35.11,3.28-5.11,6.51-10.27,10.07-15.18,1.48-2.05,3.51-3.98,5.71-5.2,7.65-4.25,15.5-8.14,23.25-12.2,3.36-1.76,6.01-2.65,9.61,.68,5.02,4.64,11.28,7.89,16.7,12.14,5.26,4.13,11.16,4.84,17.34,4.11,18.69-2.22,37.62-3.42,55.97-7.3,20.27-4.29,40.22-10.46,59.9-17.05,16.43-5.5,32.36-12.58,48.29-19.45,3.01-1.3,5.39-4.62,7.48-7.44,18.47-24.82,36.78-49.76,55.26-74.57,1.51-2.03,3.77-3.65,5.97-4.99,16.51-10,33.09-19.88,49.66-29.79,.53-.32,1.15-.5,1.71-.73,1.87,3.79-7.93,50.36-13.02,61.67,3.76-2.67,6.9-4.88,10.73-7.59,.82,1.63,1.89,3.17,2.42,4.89,5.69,18.33,8.24,37.23,6.77,56.25-1.22,15.77-4.68,31.38-7.26,47.77Zm-8.33,5.05c-.57-.15-1.52-.61-2.47-.6-11.4,.13-20.19,5.65-27.39,13.89-6.44,7.38-13.36,13.2-23.99,12.66-3.74-.19-7.56,.54-11.29,1.17-9.64,1.61-16.42,8.33-24.01,13.65-13.25,9.28-27.44,15.49-44.24,12.62-10.7-1.83-20.03,.6-26.8,9.68-9.89,13.26-23.25,17.21-39.01,14.7-9.07-1.44-16.36,.98-22.94,7.79-8.01,8.29-17.98,11.48-27.36,4.09-9.95-7.85-12.9-5.61-20.97-.54-5.63,3.54-11.77,3.72-17.22-.02-4.12-2.83-7.47-6.78-11.43-10.48-4.9,16.41-1.63,31.1,9.87,44.3-.63,.28-1.26,.57-1.89,.85-1.83-2.42-3.67-4.84-5.77-7.62-2.64,4.15-4.39,6.9-6.07,9.56,7.13,9.14,15.19,10.61,23.96,7.4,8.79-3.22,16.43-2.03,23.92,2.83,7.43,4.82,14.09,5.22,20.94-.53,10.66-8.95,22.49-10.09,34.82-5.84,11.5,3.96,20.09-.22,28.06-7.6,11.36-10.53,24.75-15.73,40.11-14.41,8.48,.73,15.06-1.38,20.98-7.48,5.46-5.61,11.97-9.87,20.13-10.77,4.39-.48,8.82-.84,13.14-1.68,10.11-1.97,18-7.62,25.08-14.94,7.21-7.45,15.86-12.6,26.05-15.47,7.47-2.1,15.52-4.31,21.54-8.82,7.23-5.42,12.24-13.7,18.84-20.09,10.71-10.39,2.02-27.1-8.91-30.5-.44,1.17-.73,2.45-1.36,3.52-.82,1.39-1.92,2.63-2.9,3.93-.42-1.51-.82-3-1.42-5.25Zm11.96-69.15c-6.46,8.63-14.06,14.05-24.85,14.7-2.17,.13-5.07,2.11-6.15,4.06-5.75,10.4-14.75,16.35-25.92,18.63-10.6,2.16-20.04,6.28-27.96,13.48-12.4,11.27-26.56,17.17-43.52,16.76-7.76-.19-15.02,2.12-21.61,7.03-7.88,5.88-16.23,11.25-24.86,15.97-8.59,4.7-18.38,7.37-27.34,1.95-11.08-6.71-18.38-3.79-26.03,3.49-11.93,11.35-26.19,14.53-42.11,11.63-8.21-1.5-16.16-1.85-24.31,1.57-5.15,2.16-11.14,2.71-16.81,3.06-4.44,.28-8.97-.84-13.74-1.37,4.98,13.66,10.86,26.46,19.71,37.99,6.2,8.07,15.69,11.42,24.61,4.66,6.79-5.15,12.46-4.25,19.32,1.01,9.21,7.06,17.78,6.68,25.2-1.85,7.44-8.55,16.83-10.71,27.28-8.94,7.98,1.35,15.72,1.19,22.33-3.35,6.02-4.13,11.13-9.59,16.62-14.48,5.22-4.64,11.19-8.22,18.27-7.06,19.41,3.19,36.6-.83,51.65-13.78,9.92-8.53,21.24-13.78,34.7-13.16,7.35,.34,12.94-3.16,17.94-8.05,3.55-3.47,6.9-7.21,10.82-10.2,7.92-6.04,16.63-10,27.19-7.54,7.56-21.51,10.95-43.55,9.57-66.21Zm-332.94,69.78c-.22,2.25-1.21,5.28-.66,8,1.76,8.64,3.98,17.19,6.33,25.68,.42,1.5,2.05,3.24,3.53,3.79,10.29,3.83,20.18,1.71,30.37-1.48,6.24-1.95,13.6-2.98,19.88-1.66,17.48,3.69,32.51,.8,45.38-12.05,7.42-7.4,16.55-8.62,24.39-3.65,6.95,4.41,14.59,5.12,21.7,1.87,8.59-3.93,16.82-8.86,24.62-14.21,8.66-5.94,17.09-12.16,28.17-11.51,16.76,.98,30.34-5.78,42.79-16.15,7.73-6.44,16.2-11.07,26.48-13.32,10.51-2.3,20.61-6.84,26.02-17.76,1.83-3.69,5.11-6.02,10.07-5.98,9.59,.07,22.78-10.37,23.31-19.65,.42-7.53-2.05-15.22-3.31-23.32-2.52,1.8-4.18,2.86-5.69,4.09-17.29,14.16-36.26,25.73-55.99,36.11-23.71,12.47-48.69,21.97-73.52,31.93-36.97,14.82-74.18,28.15-114.29,30.96-15.04,1.06-30.12,1.78-45.19,1.77-5.4,0-12.42,1.57-14.86-4.97-6.75,.53-12.9,1-19.53,1.51Zm341.99,25.54c-4.05,4.71-8.32,9.29-12.13,14.21-8.13,10.52-18.75,17.26-31.59,19.7-11.47,2.18-20.57,7.84-28.44,15.93-9.25,9.51-19.93,14.98-33.6,15.67-6.36,.32-12.67,3.97-18.73,6.7-2.56,1.16-4.45,3.84-6.6,5.88-5.51,5.2-12.13,7.38-19.54,6.49-16.34-1.96-29.51,4.47-41.35,14.88-8.73,7.68-18.25,11.16-30.01,6.84-10.43-3.83-20.85-3.2-29.85,4.13-9.09,7.42-17.16,8.1-26.91,1.64-5.32-3.52-11.38-5.63-17.31-3.28-11.16,4.43-20.84,3.33-29.45-5.31-3.14,8.23-2.14,12.77,3.93,14.06,13.51,2.89,27.07,6.33,40.78,7.35,27.89,2.09,55.68-1.25,82.28-9.39,34.84-10.66,69.39-22.52,103.36-35.67,35.43-13.72,68.48-32.39,99.35-54.69,.92-.66,2.02-1.4,2.46-2.36,2.75-6.07-.65-18.06-6.65-22.78Zm-318.63-29.49c-.21,.74-.42,1.48-.63,2.22,2.08,.63,4.13,1.65,6.25,1.82,23.97,1.98,47.93,.71,71.42-3.82,19.87-3.83,39.64-9.04,58.78-15.62,24.11-8.29,47.65-18.31,71.22-28.1,32.96-13.69,64.03-30.78,92.1-53.04,3.51-2.78,3.71-3.37,2.62-8.25-26.84,19.61-55.46,36.05-86.13,48.82-16.16,6.73-32.55,12.9-48.71,19.6-28.44,11.79-57.2,22.32-87.58,28.27-24.37,4.77-48.84,7.66-73.65,7.79-1.91,0-3.8,.19-5.69,.31Zm-41.83-6.41c-2.47,2.33-6.29,4.83-8.62,8.32-9.27,13.91-18.12,28.1-26.97,42.29-.62,.99-.5,3.21,.21,4.12,4.29,5.45,9.98,8.44,17,8.85,3,.17,4.65-.74,5.93-3.84,4.84-11.67,10.22-23.12,15.23-34.71,2.08-4.8,3.91-9.72,5.51-14.7,.37-1.17-.26-3.15-1.14-4.12-1.81-2.02-4.09-3.62-7.15-6.21Zm293.53-121.12c-19.16,25.85-38.01,51.29-57.54,77.65,8.28-3.49,15.53-6.45,22.68-9.63,1.72-.77,3.58-1.93,4.62-3.43,11.53-16.65,22.92-33.4,34.3-50.16,.5-.73,.92-1.95,.65-2.68-1.33-3.7-2.89-7.31-4.71-11.75Zm35.81,19.62c4.86-.3,6.18-3.43,6.94-7.22,1.15-5.78,2.53-11.51,3.73-17.28,.47-2.26,.86-3.86-2.47-5.21-4.83-1.96-9.01-5.54-14.3-8.97-7.41,4.38-16.2,9.51-24.88,14.84-.95,.58-1.89,2.52-1.62,3.48,.87,3.08,2.32,5.99,3.75,9.47,10.2-7.34,8.72,3.79,12.17,7.13q10.2-2.5,16.68,3.76Zm-61.05,42.92c.27,.25,.53,.5,.8,.75,5.8-2.91,11.46-6.14,17.42-8.65,10.2-4.3,18-10.83,22.95-20.93,2.56-5.22,6.11-9.95,9.42-15.24q-8.44,.1-13.39-9.86c-12.59,18.25-24.9,36.09-37.2,53.93ZM108.86,470.58c6.78-1.69,10.05-5.69,11.96-10.65,4.82-12.51,9.33-25.13,13.88-37.74,1.45-4.03,.51-7.6-1.74-10.23-1.19,3.93-2.03,7.95-3.61,11.65-6.55,15.37-13.33,30.64-20.49,46.97Zm319.11-143.37c.3,.29,.59,.58,.89,.87,7.56-5.97,18.11-8.29,21.92-17.59-2.92-2.37-5.41-4.38-8.02-6.5-4.94,7.76-9.86,15.49-14.79,23.22Zm17.86-61.83c4.79,2.95,8.65,5.48,12.7,7.68,.76,.41,3.13-.33,3.27-.9,1.43-5.84,2.55-11.76,4.03-18.99-7.15,4.36-12.82,7.82-20,12.21ZM155.6,404.58c.08-.58,.17-1.16,.25-1.74-1.1-.96-2.15-1.98-3.3-2.88-8.31-6.54-9.68-6.56-17.7,.03-.91,.75-2.08,2.47-1.78,3.12,.57,1.24,2.14,2.91,3.25,2.87,6.44-.21,12.86-.88,19.28-1.4Zm-20.33,4.39c5.39,8.06,22.21,6.09,27.08-2.83-1.87-.16-3.93-1-5.13-.32-6.73,3.82-13.84,4.63-21.95,3.15Z"/>
      <path class="cls-1" d="M106.7,450.91c-.07,4.8-3.53,9.39-7.15,9.17-3.73-.23-5.01-3.16-5.13-6.18-.18-4.53,3.42-7.62,7.66-7.82,3.72-.18,4.52,1.85,4.62,4.83Zm-7.46,6.28c3.76-1.09,4.66-3.79,3.91-7.11-.1-.43-3.09-.96-3.66-.38-2.16,2.17-3.09,4.8-.25,7.49Z"/>
    </g>
  </g>
</svg>