<?xml version="1.0" encoding="utf-8"?>
<!-- Generator: Adobe Illustrator 26.5.0, SVG Export Plug-In . SVG Version: 6.00 Build 0)  -->
<svg version="1.1" id="Capa_1" xmlns="http://www.w3.org/2000/svg" xmlns:xlink="http://www.w3.org/1999/xlink" x="0px" y="0px"
	 viewBox="0 0 595.28 841.89" style="enable-background:new 0 0 595.28 841.89;" xml:space="preserve">
<g id="_x34_nQ1OU_00000183229191829255269660000014049131534869739952_">
	<g>
		<path d="M440.04,414.85c9.31,5.76,16.75,13.93,13.69,27.6c9.21,6.63,11.15,15.61,8.69,27.66c-0.25,1.24-1.63,2.51-2.82,3.24
			c-17.68,11.02-35.08,22.54-53.21,32.78c-30.73,17.35-63.52,30.25-96.89,41.44c-23.74,7.97-47.85,15.02-72.1,21.25
			c-22.57,5.79-45.89,6.81-69.05,5.15c-12.85-0.92-25.57-4.27-38.24-7.04c-7.03-1.54-9.87-7.64-7.13-15.3
			c1.85-5.18,5.08-9.85,7.45-14.86c0.72-1.53,1.41-3.79,0.81-5.11c-4.99-10.95-4.49-22.13-2.19-33.51c0.38-1.88,0.81-4.36-0.05-5.79
			c-10.36-17.28-15.94-36.27-20.46-55.67c-0.17-0.74-0.47-1.45-1.04-3.14c-3.8,10-7.5,18.96-10.6,28.13
			c-2.22,6.57-5.21,12.87-12.25,14.23c-8.94,1.74-18.25,2.08-25.83-4.91c-2.55-2.35-5.13-4.68-7.75-7.06
			c7.72-12.11,15.04-23.63,22.41-35.11c3.28-5.11,6.51-10.27,10.07-15.18c1.48-2.05,3.51-3.98,5.71-5.2
			c7.65-4.25,15.5-8.14,23.25-12.2c3.36-1.76,6.01-2.65,9.61,0.68c5.02,4.64,11.28,7.89,16.7,12.14c5.26,4.13,11.16,4.84,17.34,4.11
			c18.69-2.22,37.62-3.42,55.97-7.3c20.27-4.29,40.22-10.46,59.9-17.05c16.43-5.5,32.36-12.58,48.29-19.45
			c3.01-1.3,5.39-4.62,7.48-7.44c18.47-24.82,36.78-49.76,55.26-74.57c1.51-2.03,3.77-3.65,5.97-4.99
			c16.51-10,33.09-19.88,49.66-29.79c0.53-0.32,1.15-0.5,1.71-0.73c1.87,3.79-7.93,50.36-13.02,61.67c3.76-2.67,6.9-4.88,10.73-7.59
			c0.82,1.63,1.89,3.17,2.42,4.89c5.69,18.33,8.24,37.23,6.77,56.25C446.08,382.85,442.62,398.46,440.04,414.85z M431.71,419.9
			c-0.57-0.15-1.52-0.61-2.47-0.6c-11.4,0.13-20.19,5.65-27.39,13.89c-6.44,7.38-13.36,13.2-23.99,12.66
			c-3.74-0.19-7.56,0.54-11.29,1.17c-9.64,1.61-16.42,8.33-24.01,13.65c-13.25,9.28-27.44,15.49-44.24,12.62
			c-10.7-1.83-20.03,0.6-26.8,9.68c-9.89,13.26-23.25,17.21-39.01,14.7c-9.07-1.44-16.36,0.98-22.94,7.79
			c-8.01,8.29-17.98,11.48-27.36,4.09c-9.95-7.85-12.9-5.61-20.97-0.54c-5.63,3.54-11.77,3.72-17.22-0.02
			c-4.12-2.83-7.47-6.78-11.43-10.48c-4.9,16.41-1.63,31.1,9.87,44.3c-0.63,0.28-1.26,0.57-1.89,0.85
			c-1.83-2.42-3.67-4.84-5.77-7.62c-2.64,4.15-4.39,6.9-6.07,9.56c7.13,9.14,15.19,10.61,23.96,7.4c8.79-3.22,16.43-2.03,23.92,2.83
			c7.43,4.82,14.09,5.22,20.94-0.53c10.66-8.95,22.49-10.09,34.82-5.84c11.5,3.96,20.09-0.22,28.06-7.6
			c11.36-10.53,24.75-15.73,40.11-14.41c8.48,0.73,15.06-1.38,20.98-7.48c5.46-5.61,11.97-9.87,20.13-10.77
			c4.39-0.48,8.82-0.84,13.14-1.68c10.11-1.97,18-7.62,25.08-14.94c7.21-7.45,15.86-12.6,26.05-15.47
			c7.47-2.1,15.52-4.31,21.54-8.82c7.23-5.42,12.24-13.7,18.84-20.09c10.71-10.39,2.02-27.1-8.91-30.5
			c-0.44,1.17-0.73,2.45-1.36,3.52c-0.82,1.39-1.92,2.63-2.9,3.93C432.71,423.64,432.31,422.15,431.71,419.9z M443.67,350.75
			c-6.46,8.63-14.06,14.05-24.85,14.7c-2.17,0.13-5.07,2.11-6.15,4.06c-5.75,10.4-14.75,16.35-25.92,18.63
			c-10.6,2.16-20.04,6.28-27.96,13.48c-12.4,11.27-26.56,17.17-43.52,16.76c-7.76-0.19-15.02,2.12-21.61,7.03
			c-7.88,5.88-16.23,11.25-24.86,15.97c-8.59,4.7-18.38,7.37-27.34,1.95c-11.08-6.71-18.38-3.79-26.03,3.49
			c-11.93,11.35-26.19,14.53-42.11,11.63c-8.21-1.5-16.16-1.85-24.31,1.57c-5.15,2.16-11.14,2.71-16.81,3.06
			c-4.44,0.28-8.97-0.84-13.74-1.37c4.98,13.66,10.86,26.46,19.71,37.99c6.2,8.07,15.69,11.42,24.61,4.66
			c6.79-5.15,12.46-4.25,19.32,1.01c9.21,7.06,17.78,6.68,25.2-1.85c7.44-8.55,16.83-10.71,27.28-8.94
			c7.98,1.35,15.72,1.19,22.33-3.35c6.02-4.13,11.13-9.59,16.62-14.48c5.22-4.64,11.19-8.22,18.27-7.06
			c19.41,3.19,36.6-0.83,51.65-13.78c9.92-8.53,21.24-13.78,34.7-13.16c7.35,0.34,12.94-3.16,17.94-8.05
			c3.55-3.47,6.9-7.21,10.82-10.2c7.92-6.04,16.63-10,27.19-7.54C441.66,395.45,445.05,373.41,443.67,350.75z M110.73,420.53
			c-0.22,2.25-1.21,5.28-0.66,8c1.76,8.64,3.98,17.19,6.33,25.68c0.42,1.5,2.05,3.24,3.53,3.79c10.29,3.83,20.18,1.71,30.37-1.48
			c6.24-1.95,13.6-2.98,19.88-1.66c17.48,3.69,32.51,0.8,45.38-12.05c7.42-7.4,16.55-8.62,24.39-3.65
			c6.95,4.41,14.59,5.12,21.7,1.87c8.59-3.93,16.82-8.86,24.62-14.21c8.66-5.94,17.09-12.16,28.17-11.51
			c16.76,0.98,30.34-5.78,42.79-16.15c7.73-6.44,16.2-11.07,26.48-13.32c10.51-2.3,20.61-6.84,26.02-17.76
			c1.83-3.69,5.11-6.02,10.07-5.98c9.59,0.07,22.78-10.37,23.31-19.65c0.42-7.53-2.05-15.22-3.31-23.32
			c-2.52,1.8-4.18,2.86-5.69,4.09c-17.29,14.16-36.26,25.73-55.99,36.11c-23.71,12.47-48.69,21.97-73.52,31.93
			c-36.97,14.82-74.18,28.15-114.29,30.96c-15.04,1.06-30.12,1.78-45.19,1.77c-5.4,0-12.42,1.57-14.86-4.97
			C123.51,419.55,117.36,420.02,110.73,420.53z M452.72,446.07c-4.05,4.71-8.32,9.29-12.13,14.21
			c-8.13,10.52-18.75,17.26-31.59,19.7c-11.47,2.18-20.57,7.84-28.44,15.93c-9.25,9.51-19.93,14.98-33.6,15.67
			c-6.36,0.32-12.67,3.97-18.73,6.7c-2.56,1.16-4.45,3.84-6.6,5.88c-5.51,5.2-12.13,7.38-19.54,6.49
			c-16.34-1.96-29.51,4.47-41.35,14.88c-8.73,7.68-18.25,11.16-30.01,6.84c-10.43-3.83-20.85-3.2-29.85,4.13
			c-9.09,7.42-17.16,8.1-26.91,1.64c-5.32-3.52-11.38-5.63-17.31-3.28c-11.16,4.43-20.84,3.33-29.45-5.31
			c-3.14,8.23-2.14,12.77,3.93,14.06c13.51,2.89,27.07,6.33,40.78,7.35c27.89,2.09,55.68-1.25,82.28-9.39
			c34.84-10.66,69.39-22.52,103.36-35.67c35.43-13.72,68.48-32.39,99.35-54.69c0.92-0.66,2.02-1.4,2.46-2.36
			C462.12,462.78,458.72,450.79,452.72,446.07z M134.09,416.58c-0.21,0.74-0.42,1.48-0.63,2.22c2.08,0.63,4.13,1.65,6.25,1.82
			c23.97,1.98,47.93,0.71,71.42-3.82c19.87-3.83,39.64-9.04,58.78-15.62c24.11-8.29,47.65-18.31,71.22-28.1
			c32.96-13.69,64.03-30.78,92.1-53.04c3.51-2.78,3.71-3.37,2.62-8.25c-26.84,19.61-55.46,36.05-86.13,48.82
			c-16.16,6.73-32.55,12.9-48.71,19.6c-28.44,11.79-57.2,22.32-87.58,28.27c-24.37,4.77-48.84,7.66-73.65,7.79
			C137.87,416.27,135.98,416.46,134.09,416.58z M92.26,410.17c-2.47,2.33-6.29,4.83-8.62,8.32c-9.27,13.91-18.12,28.1-26.97,42.29
			c-0.62,0.99-0.5,3.21,0.21,4.12c4.29,5.45,9.98,8.44,17,8.85c3,0.17,4.65-0.74,5.93-3.84c4.84-11.67,10.22-23.12,15.23-34.71
			c2.08-4.8,3.91-9.72,5.51-14.7c0.37-1.17-0.26-3.15-1.14-4.12C97.6,414.36,95.32,412.76,92.26,410.17z M385.79,289.05
			c-19.16,25.85-38.01,51.29-57.54,77.65c8.28-3.49,15.53-6.45,22.68-9.63c1.72-0.77,3.58-1.93,4.62-3.43
			c11.53-16.65,22.92-33.4,34.3-50.16c0.5-0.73,0.92-1.95,0.65-2.68C389.17,297.1,387.61,293.49,385.79,289.05z M421.6,308.67
			c4.86-0.3,6.18-3.43,6.94-7.22c1.15-5.78,2.53-11.51,3.73-17.28c0.47-2.26,0.86-3.86-2.47-5.21c-4.83-1.96-9.01-5.54-14.3-8.97
			c-7.41,4.38-16.2,9.51-24.88,14.84c-0.95,0.58-1.89,2.52-1.62,3.48c0.87,3.08,2.32,5.99,3.75,9.47c10.2-7.34,8.72,3.79,12.17,7.13
			C415.12,302.41,415.12,302.41,421.6,308.67z M360.55,351.59c0.27,0.25,0.53,0.5,0.8,0.75c5.8-2.91,11.46-6.14,17.42-8.65
			c10.2-4.3,18-10.83,22.95-20.93c2.56-5.22,6.11-9.95,9.42-15.24c-8.44,0.1-8.44,0.1-13.39-9.86
			C385.16,315.91,372.85,333.75,360.55,351.59z M81.15,473.68c6.78-1.69,10.05-5.69,11.96-10.65c4.82-12.51,9.33-25.13,13.88-37.74
			c1.45-4.03,0.51-7.6-1.74-10.23c-1.19,3.93-2.03,7.95-3.61,11.65C95.09,442.08,88.31,457.35,81.15,473.68z M400.26,330.31
			c0.3,0.29,0.59,0.58,0.89,0.87c7.56-5.97,18.11-8.29,21.92-17.59c-2.92-2.37-5.41-4.38-8.02-6.5
			C410.11,314.85,405.19,322.58,400.26,330.31z M418.12,268.48c4.79,2.95,8.65,5.48,12.7,7.68c0.76,0.41,3.13-0.33,3.27-0.9
			c1.43-5.84,2.55-11.76,4.03-18.99C430.97,260.63,425.3,264.09,418.12,268.48z M127.89,407.68c0.08-0.58,0.17-1.16,0.25-1.74
			c-1.1-0.96-2.15-1.98-3.3-2.88c-8.31-6.54-9.68-6.56-17.7,0.03c-0.91,0.75-2.08,2.47-1.78,3.12c0.57,1.24,2.14,2.91,3.25,2.87
			C115.05,408.87,121.47,408.2,127.89,407.68z M107.56,412.07c5.39,8.06,22.21,6.09,27.08-2.83c-1.87-0.16-3.93-1-5.13-0.32
			C122.78,412.74,115.67,413.55,107.56,412.07z"/>
		<path d="M78.99,454.01c-0.07,4.8-3.53,9.39-7.15,9.17c-3.73-0.23-5.01-3.16-5.13-6.18c-0.18-4.53,3.42-7.62,7.66-7.82
			C78.09,449,78.89,451.03,78.99,454.01z M71.53,460.29c3.76-1.09,4.66-3.79,3.91-7.11c-0.1-0.43-3.09-0.96-3.66-0.38
			C69.62,454.97,68.69,457.6,71.53,460.29z"/>
	</g>
</g>
</svg>
